<?xml version="1.0" encoding="utf-8"?>
<!-- Generator: Adobe Illustrator 17.1.0, SVG Export Plug-In . SVG Version: 6.00 Build 0)  -->
<!DOCTYPE svg PUBLIC "-//W3C//DTD SVG 1.1//EN" "http://www.w3.org/Graphics/SVG/1.1/DTD/svg11.dtd">
<svg version="1.1" id="Layer_1" xmlns="http://www.w3.org/2000/svg" xmlns:xlink="http://www.w3.org/1999/xlink" x="0px" y="0px"
	 viewBox="0 0 599.9 599.9" enable-background="new 0 0 599.9 599.9" xml:space="preserve">
<g>
	<path fill="#FFFFFF" d="M299.9,190c-74.8,0-149.6,0-224.4,0c-22.7,0-39.1-17-38.5-39.5c0.5-19.4,16.2-35.5,35.6-36.4
		c1.2-0.1,2.3,0,3.5,0c149.3,0,298.5,0,447.8,0c23,0,39.6,16.8,39,39.5c-0.5,19.6-16.4,35.8-36.1,36.4c-10.5,0.3-21,0.1-31.5,0.1
		C430.2,190,365.1,190,299.9,190z"/>
	<path fill="#FFFFFF" d="M299.6,340c-74.5,0-148.9,0-223.4,0c-20.3,0-35.3-12.5-38.7-31.9c-3.9-22.1,13.1-43.2,35.6-44
		c0.7,0,1.3,0,2,0c149.9,0,299.9,0,449.8,0c28.8,0,47.1,29.6,34.1,55.2c-7.2,14.1-19.2,20.8-34.9,20.8c-60.3,0-120.6,0-180.9,0
		C328.5,340,314,340,299.6,340z"/>
	<path fill="#FFFFFF" d="M300,489.9c-74.8,0-149.6,0-224.4,0c-22.7,0-39.1-16.9-38.6-39.4c0.4-19.4,16.1-35.5,35.5-36.5c1,0,2,0,3,0
		c149.6,0,299.2,0,448.8,0c29.2,0,47.7,29.5,34.5,55.2c-7,13.7-18.6,20.6-33.9,20.7c-31.7,0.2-63.3,0.1-95,0.1
		C386.6,489.9,343.3,489.9,300,489.9z"/>
</g>
</svg>
