<?xml version="1.0" encoding="utf-8"?>
<!-- Generator: Adobe Illustrator 17.1.0, SVG Export Plug-In . SVG Version: 6.00 Build 0)  -->
<!DOCTYPE svg PUBLIC "-//W3C//DTD SVG 1.1//EN" "http://www.w3.org/Graphics/SVG/1.1/DTD/svg11.dtd">
<svg version="1.1" id="Layer_1" xmlns="http://www.w3.org/2000/svg" xmlns:xlink="http://www.w3.org/1999/xlink" x="0px" y="0px"
	 viewBox="0 0 511.9 511.9" enable-background="new 0 0 511.9 511.9" xml:space="preserve">
<g>
	<path fill="#FFFFFF" d="M255.5,477.9c-10.3,0-20.7,0-31,0c-7.3,0-10.5-3-11.6-10.3c-2.3-15.5-4.8-30.9-7-46.4
		c-0.5-3.2-1.7-4.9-4.8-6c-6.1-2.2-12.1-4.6-18-7.3c-2.8-1.3-4.7-1-7.1,0.8c-11.8,9.2-23.8,18.2-35.8,27.3
		c-6.3,4.8-10.8,4.7-16.4-0.7c-13.9-13.6-28-27.1-41.4-41.3c-9.5-10.1-9.1-12.9-0.6-24.1c7.9-10.3,15.8-20.6,23.9-30.8
		c1.8-2.3,1.8-4,0.6-6.6c-3.2-6.9-6.2-14-8.8-21.2c-1-2.8-2.5-3.8-5.3-4.2c-15.7-2.2-31.3-4.6-46.9-6.9c-6.4-1-9.4-4.3-9.5-10.7
		c-0.1-20.8-0.1-41.7,0-62.5c0-6.6,3.1-10.1,9.7-11.1c15.1-2.4,30.3-4.7,45.4-6.8c4.1-0.6,6.3-2,7.5-6.2c1.7-5.7,4.2-11.2,7-16.5
		c1.9-3.5,1.5-5.9-0.9-8.9c-8.8-11.1-17.4-22.3-26.2-33.4c-5.4-6.8-6.1-10.4-0.2-16.7c14-14.9,28.2-29.6,43.1-43.7
		c8.7-8.2,12.1-7.5,21.7-0.1c10.8,8.3,21.7,16.6,32.4,25.1c2.4,1.9,4.1,2.2,7,0.8c6.1-3,12.5-5.6,18.8-7.9c2.5-0.9,3.5-2.1,3.9-4.8
		c2.4-16,4.8-31.9,7.6-47.8c1.3-7.6,4.4-9.8,12.1-9.8c20.2-0.1,40.3-0.1,60.5,0c7.4,0,10.7,2.8,11.8,10c2.5,15.8,5,31.6,7.3,47.4
		c0.4,2.9,1.6,4.2,4.3,5.1c6.3,2.2,12.4,4.8,18.4,7.6c2.6,1.2,4.3,1.1,6.6-0.6c12.1-9.3,24.4-18.5,36.7-27.7
		c5.6-4.2,10.4-4.4,15.2,0.3c14.6,14.4,29.1,28.8,43.2,43.7c7.6,8,7.2,11.8,0.6,20.5c-8.2,10.7-16.4,21.5-24.8,32
		c-2.2,2.8-2.2,4.9-0.7,8c3.1,6.4,6,13,8.3,19.8c1.1,3.3,2.9,4.3,6,4.8c15.3,2.3,30.6,4.6,45.9,7c6.9,1.1,10.1,4.3,10.1,11.3
		c0.1,20.5,0.1,41,0,61.5c0,7.2-3.1,10.6-10.3,11.7c-14.8,2.3-29.6,4.5-44.4,6.6c-4.1,0.6-6.8,1.6-8.2,6.3c-1.6,5.7-4.3,11.2-7,16.5
		c-1.6,3.1-1.6,5.2,0.6,8c8.9,11.2,17.6,22.6,26.5,33.8c5.8,7.4,6.4,10.8,0.1,17.5c-14.1,14.9-28.3,29.6-43.2,43.6
		c-8.5,8-12.2,7.3-21.3,0.2c-10.9-8.5-21.8-17-32.6-25.6c-2.2-1.8-4-1.9-6.6-0.7c-6.2,2.9-12.5,5.5-18.9,7.8c-2.7,1-3.8,2.3-4.2,5.3
		c-2.1,15.3-4.4,30.6-7,45.9c-1.6,9.4-4.3,11.4-13.8,11.4C274.5,477.9,265,477.9,255.5,477.9z M255.3,194
		c-35.8-0.1-65.1,28.7-65.4,64.4c-0.2,36.1,28.7,65.5,64.6,65.6c35.8,0.1,65.1-28.7,65.4-64.4C320.2,223.5,291.2,194.1,255.3,194z"
		/>
</g>
</svg>
