<?xml version="1.0" encoding="utf-8"?>
<!-- Generator: Adobe Illustrator 17.1.0, SVG Export Plug-In . SVG Version: 6.00 Build 0)  -->
<!DOCTYPE svg PUBLIC "-//W3C//DTD SVG 1.1//EN" "http://www.w3.org/Graphics/SVG/1.1/DTD/svg11.dtd">
<svg version="1.1" xmlns="http://www.w3.org/2000/svg" xmlns:xlink="http://www.w3.org/1999/xlink" x="0px" y="0px"
	 viewBox="0 0 563 591.6" enable-background="new 0 0 563 591.6" xml:space="preserve">
<g id="Layer_2" display="none">
	<rect x="-58.2" y="-78.3" display="inline" fill="#4D4D4D" width="719.4" height="767.3"/>
</g>
<g id="Layer_1">
	<g>
		<path d="M119.1,438c-4.7-6.4-9.5-12.6-13.8-19c-13.2-19.9-21.5-41.7-24.7-65.3C78,334.2,79.2,315,84,295.9
			c0.4-1.4,0.2-2.5-0.6-3.8c-8.7-14.1-17.1-28.3-23.2-43.8c-2.5-6.3-4.4-12.7-5.3-19.5c-1.2-8.8,1.7-15.9,8.6-21.5
			c6.5-5.2,14.1-8.1,22-10.3c13.4-3.8,27.2-5.6,41.1-6.1c12-0.4,24,0,36,0c0.9,0,1.9-0.2,2.7-0.6c18.8-11.4,39-19.6,60.3-24.9
			c0.3-0.1,0.5-0.2,1-0.4c-11.2-27.9-22.5-55.7-33.8-83.8c14.5-4.5,28.8-8.9,43.2-13.4c-1.4-7.6-0.7-14.9,2.1-22
			c6.4-15.7,23.1-25.8,39.3-23.6c18.3,2.4,31.8,15.6,34,33.2c2.1,17.5-7.5,33.8-23.8,40.4c-16,6.4-34.4,1.2-44.7-12.7
			c-0.9-1.2-1.6-1.5-3.2-1.1c-8.5,2.7-17,5.3-25.5,7.9c-0.6,0.2-1.1,0.4-1.8,0.7c2.5,6.3,5,12.4,7.5,18.6
			c6.8,16.9,13.7,33.8,20.4,50.7c0.7,1.7,1.5,2.1,3.3,1.8c18.5-3.1,37.1-3.9,55.8-2.6c0.9,0.1,2.1-0.5,2.8-1.2
			c18.6-17.7,39.1-33,61.5-45.8c11.4-6.5,23.1-12.2,36-15.1c6-1.4,12.1-2,18.2-0.8c6.6,1.4,11.2,5.3,14.5,11
			c4.5,7.7,6.8,16.1,8.6,24.8c3.1,14.7,4.9,29.6,5.3,44.6c0.5,15.9,0.6,31.9,0.3,47.8c-0.1,4.8,1.1,8.2,4,11.9
			c16.6,21.1,27.7,44.9,32.1,71.5c6,36-0.3,69.9-18.1,101.7c-5.5,9.9-12,19-19.3,27.5c-0.9,1-1,1.8-0.4,3c3.9,8.2,6.7,16.8,7,26
			c0.5,12.8-4.1,23.1-13.9,31.4c-23.9,20-51.5,32.3-81.5,39.7c-29.4,7.2-59.3,8.9-89.5,8c-14.3-0.4-28.6-1.4-42.7-3.5
			c-23.6-3.4-46.4-9.2-67.7-20.3c-11.9-6.2-22.7-14.1-32.4-23.4c-10.4-10-13.9-22.3-12.4-36.3C112.8,453.3,115.6,445.4,119.1,438z
			 M95,309.9c-0.2,1-0.4,1.7-0.5,2.3c-3.7,24.6-1.1,48.5,7.9,71.6c7.3,18.9,18.3,35.5,32.1,50.3c1.1,1.1,1.2,1.9,0.4,3.3
			c-4.2,7.3-7.7,14.9-9.2,23.2c-1.9,10.5-0.1,20,8,27.7c14.8,14,31.9,24,51.2,30.4c20.8,6.9,42.3,10.2,64.1,11.8
			c25.5,1.8,50.9,1.8,76.3-1.5c19.1-2.5,37.7-6.8,55.7-13.8c17.9-6.9,34.2-16.5,48.8-28.8c4.5-3.8,7.4-8.5,8.2-14.4
			c1-7.3-0.5-14.3-3.3-20.9c-2.1-5-4.6-9.9-6.9-14.9c0.4-0.4,0.9-1,1.5-1.6c9-9.6,16.9-20,23.3-31.4c16.8-29.9,22.5-61.8,16.2-95.6
			c-4.6-24.8-15.5-46.6-31.3-66.1c-0.6-0.8-1-2-0.9-3.1c0.3-6.5,1.2-12.9,1.2-19.4c-0.1-15.9-0.2-31.9-0.9-47.8
			c-0.6-13.8-2.4-27.5-5.6-41c-1.7-6.9-3.6-13.7-7.6-19.7c-2-2.9-4.6-4.9-8.1-5.3c-2.1-0.3-4.4-0.4-6.5-0.3
			c-8.2,0.5-15.8,3.3-23.3,6.5c-18.7,8.1-35.6,19.1-51.7,31.5c-15.6,12-30.7,24.6-42.1,41.2c-2.6-1.3-5.2-2.7-8-4.1
			c1.7-2.6,3.3-5,5-7.8c-17.6-0.5-34.7,0.9-51.6,4.4c-16.8,3.4-44.8,13.2-48.5,16.8c9.9,1.7,19.7,3.3,28.9,7.8
			c-1.5,2.8-2.8,5.4-3.9,7.5c-6.4-1.7-12.5-3.6-18.7-4.8c-19.1-3.7-38.5-4.7-58-4.3c-15.8,0.3-31.4,1.6-46.8,5.5
			c-7.6,1.9-15,4.5-21.3,9.4c-4.2,3.2-5.7,7.4-5.2,12.6c0.8,8,3.6,15.4,6.8,22.6c14.3,31.4,33.6,59.6,55.5,86.1
			c0.9,1.1,1.9,2.1,2.8,3.1c-2.2,2.2-4.2,4.3-6.4,6.5C112.5,334.5,103.9,322.4,95,309.9z M301.7,60.3c0-15.5-12.5-28.1-28-28.1
			c-15.4,0-28,12.5-28,27.9c0,15.5,12.5,28.1,27.9,28.2C289.1,88.3,301.7,75.8,301.7,60.3z"/>
		<path d="M420.2,183.5c-0.4,6.2-0.7,11.6-1,17.1c-0.2,2.8-1.9,4.4-4.3,5.4c-4.1,1.8-8.4,2-12.6,1.5c-20.5-2.5-39.8-8.8-57.7-19.1
			c-3-1.7-5.7-4.2-8.1-6.8c-4.1-4.4-4.6-9.5-2.3-15c2.3-5.3,5.7-9.8,9.9-13.6c15.6-14.5,33.7-24.8,54.4-30.2
			c8-2.1,10.7-0.4,13.6,7.2c2.8,7.4,4.3,15.1,5.2,22.8C418.5,163.4,419.3,173.8,420.2,183.5z"/>
		<path d="M134.2,212.5c12.5,0.1,21.6,0.7,30.3,4.1c0.9,0.3,1.8,0.7,2.6,1.1c8.3,4,11.3,9.9,8.8,18.7c-1.5,5.3-3.7,10.5-6.4,15.4
			c-7,12.5-15.6,24-25.5,34.3c-2.6,2.7-5.6,5.2-8.6,7.5c-1.7,1.4-3.8,2.4-5.8,3.3c-5,2.1-7.3,1.6-10.8-2.5
			c-9.7-11.6-17.3-24.6-24.4-37.9c-3.9-7.3-7.4-14.7-9.4-22.8c-1.8-7.3-0.6-9.7,6.1-12.7c8.1-3.7,16.6-5.6,25.4-6.7
			C123.4,213.3,130.5,212.9,134.2,212.5z"/>
		<path d="M436.4,313.6c14.2-1.1,24.3,10.5,24.8,24.8c0.3,8.9-2.4,17-5.9,25c-5.5,12.6-14.3,22.2-25.4,30
			c-10.6,7.4-21.8,13.7-34.3,17.2c-1.5,0.4-3.1,0.7-4.6,0.7c-1.9,0-2.5-1.2-1.6-2.9c0.5-0.9,1.2-1.8,1.8-2.7
			c9.5-11.9,14.1-25.8,16.1-40.7c1.2-8.7,2-17.4,3.4-26.1c0.7-4.1,2.1-8.2,3.7-12.1c3.6-8.9,10.4-13.3,20-13.3
			C435.1,313.6,435.8,313.6,436.4,313.6z"/>
		<path d="M218.5,451.7c-11.6,0.1-21-0.3-30-3.6c-11.9-4.4-22.8-10.5-30.7-20.8c-5.7-7.4-8.2-15.6-5.2-24.9
			c1.3-4.1,3.7-7.5,7.3-10.1c3.9-2.8,7.7-5.7,12.5-6.8c4.4-1.1,8.7-0.2,12.7,1.7c5.6,2.6,10.3,6.4,14.5,10.8
			c4.9,5.2,9.6,10.6,14.4,15.9c8.3,9.1,17.5,17,28.9,22c3.3,1.4,6.8,2.5,10.1,3.7c0.9,0.3,1.8,0.6,2.6,1.1c1.5,0.8,1.7,2,0.3,3
			c-1.3,0.9-2.8,1.7-4.3,2.3c-7.4,2.8-15.1,4.1-22.9,4.9C224.6,451.4,220.5,451.6,218.5,451.7z"/>
		<path d="M256,335.5c-0.1,6.6-1,12.3-3.7,17.6c-5,9.8-14.6,13-24.4,8.1c-5.4-2.7-9.7-6.8-13.1-11.8c-8.8-13-12.6-27.1-9.1-42.6
			c0.7-3,2-6,3.6-8.6c4.7-7.7,12.9-10.2,21.3-6.8c5.8,2.3,10.3,6.4,14,11.3C252.1,312.6,255.6,323.9,256,335.5z"/>
		<path d="M372.1,301.7c-0.1,6.5-1,12.1-3.7,17.4c-5.1,10-14.8,13.1-24.8,7.9c-7.2-3.8-12.2-9.7-15.9-16.8
			c-6.3-11.8-9.1-24.2-5.8-37.4c0.8-3.4,2.4-6.7,4.3-9.6c4.5-6.7,11.8-8.9,19.4-6.3c7.4,2.6,12.7,7.9,16.9,14.2
			C368.8,280.6,371.8,291,372.1,301.7z"/>
	</g>
</g>
</svg>
